<svg width="815" height="606" viewBox="0 0 815 606" fill="none" xmlns="http://www.w3.org/2000/svg">
<path d="M143 106C125.822 72.4711 114.34 34.0761 71 27.8641C62.026 26.5781 33.962 26.2311 30.562 37.9801C29.254 42.4991 40.111 45.0341 43 46.2031C59.578 52.9101 66.382 55.7111 84 52.0001C79.406 55.0031 74.681 57.0201 72 62.0001C96.002 75.6051 115.112 95.3771 133 116C95.792 100.213 53.577 86.5311 21.027 120.001C11.46 129.839 4.69703 142.583 1.68203 156C0.821733 159.831 -1.36776 166.913 1.41304 170.378C4.92204 174.75 13.676 163.26 16 161.118C29.202 148.947 39.401 145.438 45 127C46.036 132.623 44.162 138.306 44 144C55.887 139.936 70.51 138.647 80 130C81.106 135.162 88.019 132.313 92 131.972C103.99 130.945 115.922 131 128 131C92.044 153.283 56.706 173.405 60.896 222C61.668 230.959 64.973 256.36 75.907 259.067C81.418 260.431 82.776 244.517 83.571 241C86.251 229.141 94.795 217.589 96.432 206C97.32 199.711 93.856 192.279 93 186C95.796 189.899 97.945 194.318 102 197C107.988 177.878 124.402 157.358 138 143C109.191 231.207 95.66 328.432 102.115 421C105.339 467.244 115.141 511.653 124 557C106 557 91.6424 573.748 71 588.44C67.634 590.836 53.949 599.079 61.312 603.85C65.574 606.612 74.12 605 79 605H125H296C293.002 597.71 276.924 597.271 270 594.997C243.688 586.357 191.5 550 171 554C167.505 535.534 157.638 517.068 152.035 499C142.237 467.404 135.452 434.815 131.305 402C120.322 315.099 136.341 232.525 148 147C152.468 155.026 155.672 170.664 165 174C164.937 163.355 160.404 153.914 157 144C164.846 148.94 172.17 155.986 181 159V152C188.738 165.441 196.977 174.277 210 183L213 167C215.289 174.056 214.078 182.172 216.714 189C219.482 196.173 227.528 202.764 232.108 209C234.121 211.741 239.262 222.622 243.71 220.634C247.271 219.043 247.49 212.276 247.803 209C248.88 197.719 246.539 185.393 242.107 175C228.074 142.09 194.812 125.021 160 125C174.96 115.737 194.895 108.102 212 104C210.579 101.098 208.941 98.5841 207 96.0001C217.141 100.207 223.558 101.348 234 97.0001C231.816 92.9601 228.89 89.5591 226 86.0001C230.981 88.4321 235.593 93.1721 241 94.4621C248.27 96.1971 259.232 93.0001 267 93.0001C270.443 93.0001 281.983 94.824 281.372 88.899C280.312 78.623 260.292 70.5571 252 67.7111C211.75 53.8981 178.647 81.4641 154 110C161.637 90.4421 172.549 72.9951 181 54.0001L171 55.0001C187.757 45.3531 193.963 30.7561 207.06 17.0001C209.309 14.6371 221.398 6.39707 217.487 2.92307C209.258 -4.38493 186.878 4.48606 179 8.81206C149.09 25.2371 143 75.3531 143 106ZM671 120C656.805 82.1481 632.547 39.4181 585 48.8201C577.762 50.2521 571.165 52.9881 565 57.0001V59.0001C585.919 67.0911 604.187 83.1261 626 83.0001C622.508 84.6681 619.624 86.1251 617 89.0001C631.566 98.1321 646.828 110.027 657 124C621.349 99.1781 536.346 101.203 536 160C543.58 159.44 549.372 154.08 556 150.766C562.781 147.376 572.488 146.852 578.552 142.861C582.608 140.192 584.941 133.773 588 130C586.987 133.987 586.218 137.887 586 142C598.66 141.632 611.234 138.207 624 138.038C635.078 137.891 646.011 140.418 657 141C626.062 153.064 592.805 174.228 590.115 211C589.213 223.342 590.266 236.586 595.334 248C596.763 251.219 599.478 258.565 603.843 258.565C607.874 258.565 608.901 250.826 609.712 248C613.613 234.399 611.393 224.788 611 211C613.388 215.178 615.249 219.521 617 224C629.247 210.334 631.264 197.265 629 180L635 191H637C644.716 177.387 654.997 165.066 666 154L667 158C669.565 157.282 671.684 156.314 674 155C682.383 189.957 694.379 222.939 698.692 259C708.986 345.083 697.312 431.065 670 513C667.701 519.897 665.726 532.228 660.225 537.283C656.94 540.302 649.262 539.686 645 541.043C636.687 543.691 628.914 548.261 622 553.531C609.298 563.21 600.462 577.69 587 586.171C578.369 591.609 568.788 594.554 559 597.13C556.882 597.687 550.286 599.039 551.562 602.553C552.83 606.044 560.215 604.999 563 605H598H727L757 604.999C760.185 604.987 765.841 605.545 767.185 601.702C768.899 596.799 761.991 590.966 758.99 588.059C747.642 577.071 734.289 567.172 720 560.343C715.638 558.258 703.706 555.955 703.909 549.91C704.211 540.884 708.881 530.875 710.783 522C715.245 501.188 719.124 480.135 721.698 459C731.133 381.517 730.914 302.156 711.875 226C705.844 201.879 700.155 174.895 688 153C701.434 160.84 711.475 175.205 725 182C725.641 177.57 726.974 173.347 728 169C732.054 183.895 732.403 195.549 746 206C747.847 202.064 749.574 198.108 751 194C752.883 200.92 750.133 208.308 751.897 215C753.307 220.352 757.815 225.006 760.198 230C761.579 232.893 763.327 241.313 767.786 240.762C772.308 240.203 772.894 230.343 773.405 227C775.671 212.186 775.135 197.044 769.386 183C756.707 152.024 720.394 139.064 689 139C702.479 130.703 718.893 127.84 734 124L732 119C743.264 124.353 753.763 124.222 766 122C764.597 117.38 762.404 113.177 760 109C764.925 112.784 768.335 118.811 774 121.588C783.101 126.048 804.728 128.94 815 129C814.335 117.701 806.115 108.441 798 101.207C761.662 68.8151 715.623 89.3771 686 119C694.618 98.6891 709.79 81.0601 718 61.0001H706C711.307 58.2841 717.856 57.8921 722.885 54.9111C729.417 51.0391 734.295 43.0221 740.028 37.9381C742.143 36.0621 752.186 30.3761 749.749 26.7551C747.636 23.6151 741.245 24.0301 738 24.0031C726.669 23.9121 716.312 24.5341 706 29.7701C675.914 45.0461 671 90.1241 671 120Z" fill="#EC3750"/>
<path d="M685 119L684 121H686C686 119.147 686.3 119.65 685 119Z" fill="#EC3750"/>
<path d="M384.824 107.7C384.824 104.172 381.656 101.491 378.187 102.082L289.735 117.131C287.001 117.597 285 119.971 285 122.75V554.301C285 557.446 287.546 560 290.688 560H379.137C382.279 560 384.824 557.446 384.824 554.301V392.755C384.824 343.541 410.867 313.054 432.568 313.054C452.098 313.054 457.741 332.655 457.741 362.269V554.301C457.741 557.446 460.286 560 463.429 560H552.313C555.455 560 558 557.446 558 554.301V347.898C558 280.826 532.827 237.708 467.29 237.708C440.986 237.708 415.315 244.055 394.863 258.103C390.802 260.893 384.824 258.145 384.824 253.208V107.7Z" fill="#EC3750"/>
</svg>
